<svg version="1.1" id="Layer_1" xmlns="http://www.w3.org/2000/svg" xmlns:xlink="http://www.w3.org/1999/xlink" x="0px" y="0px"
	 width="100%" viewBox="0 0 1024 1024" enable-background="new 0 0 1024 1024" xml:space="preserve">
<path fill="#000000" opacity="1.000000" stroke="none" 
	d="
M422.651672,297.580048 
	C452.021271,283.498291 482.723236,276.097046 514.822449,277.145630 
	C601.553406,279.978882 663.663391,321.137909 701.165527,399.337891 
	C705.484131,408.343170 708.665894,417.852966 711.206238,427.539429 
	C711.857300,430.021820 712.524841,432.177032 715.593628,432.906982 
	C734.198242,437.332397 743.220886,450.134491 746.123413,468.207245 
	C750.708801,496.758209 748.182373,524.607239 738.019897,551.729919 
	C733.640137,563.418945 726.104736,571.209412 713.063293,572.474304 
	C710.651978,572.708191 708.764282,573.692078 707.684265,576.240662 
	C705.021484,582.523987 702.166199,588.729553 699.232056,594.892029 
	C698.157166,597.149719 698.381958,598.904358 699.908203,600.845337 
	C709.504700,613.049683 709.650757,626.162048 703.388916,639.786987 
	C700.763306,645.500183 700.653687,645.556335 706.433411,647.860535 
	C712.373352,650.228638 717.018494,654.189697 720.603760,659.331604 
	C722.531799,662.096802 724.944702,663.639282 728.065552,664.735535 
	C760.602966,676.164856 788.917053,693.951111 811.350342,720.490662 
	C812.421814,721.758179 813.401306,723.109131 814.343079,724.476685 
	C814.580688,724.821594 814.506897,725.381104 814.754333,727.027832 
	C797.205200,716.271301 780.996948,704.749023 761.820435,696.802734 
	C757.066711,715.177734 747.226807,729.727417 733.610229,741.995605 
	C731.868896,740.046692 733.325256,739.052979 733.831848,737.992554 
	C740.527710,723.977844 744.663025,709.417542 744.131165,693.683716 
	C743.989014,689.479065 742.590881,687.055115 738.671082,685.304626 
	C726.338989,679.797302 726.539185,679.696167 723.263306,692.400940 
	C718.000488,712.811157 705.908203,728.890747 690.661072,742.889038 
	C690.203003,743.309448 689.512634,743.476746 688.258667,743.545715 
	C702.429138,719.529968 714.087830,695.068115 704.883606,666.335510 
	C700.516907,671.252808 697.414795,676.708679 693.389465,681.560425 
	C678.310364,699.735291 658.849182,711.729492 637.642029,721.112732 
	C602.973694,736.451965 566.563599,744.043823 528.688049,745.540649 
	C483.708954,747.318237 439.962769,741.628723 397.954803,725.130432 
	C374.636108,715.972229 353.481812,703.166138 335.972992,684.885010 
	C331.913452,680.646362 328.415009,676.023682 325.436218,670.976807 
	C324.541473,669.460876 323.888947,667.684937 321.026489,666.048218 
	C313.631256,695.523560 323.974640,719.932556 339.706207,743.515015 
	C336.880951,743.987427 335.729980,742.138489 334.433655,740.929871 
	C318.093109,725.694336 305.748413,708.060486 301.962616,685.504700 
	C301.347076,681.837524 299.934052,681.094177 296.631897,682.213989 
	C279.955994,687.869324 281.495209,686.009644 282.839874,703.497925 
	C283.752930,715.372986 287.320587,726.655457 292.661438,737.339355 
	C293.025482,738.067627 293.223999,738.891785 293.400055,739.693176 
	C293.456146,739.948425 293.190063,740.274414 292.952087,740.863220 
	C289.992401,739.741943 288.344849,737.143311 286.310974,735.074463 
	C277.161041,725.767517 270.433380,715.008362 266.741852,702.402100 
	C265.063965,696.672302 264.644043,696.500488 259.159393,699.226562 
	C244.662979,706.432007 231.010208,715.085510 217.388367,723.786682 
	C215.894470,724.740845 214.529892,726.008423 212.295486,726.234009 
	C211.967178,723.713379 213.799042,722.461365 214.946335,721.103455 
	C231.302322,701.744934 250.927719,686.561768 273.632294,675.312439 
	C282.159485,671.087524 290.897369,667.420715 299.991699,664.610657 
	C302.258606,663.910217 304.341644,662.974548 305.569031,660.726257 
	C309.168304,654.133301 314.837769,649.945129 321.596710,647.031555 
	C322.799408,646.513184 324.141205,646.167480 325.051849,644.584595 
	C323.462646,639.446777 320.543152,634.543396 319.515472,628.922974 
	C317.577759,618.325439 319.040314,608.669678 326.526062,600.513977 
	C328.310364,598.570007 328.324005,596.945007 327.188660,594.720764 
	C324.084686,588.639709 321.062592,582.510376 318.246613,576.292175 
	C317.281647,574.161438 315.865662,573.244385 313.750458,572.950195 
	C299.373260,570.950439 291.792328,561.696472 287.561554,548.672668 
	C278.550232,520.932434 275.962982,492.731812 281.361450,463.966919 
	C284.192535,448.881989 292.698578,438.591370 307.732422,434.434448 
	C312.589386,433.091431 314.908234,430.409119 316.382843,425.553009 
	C327.638794,388.485992 346.244812,355.819519 375.379089,329.761230 
	C389.595062,317.046173 405.189240,306.246307 422.651672,297.580048 
M447.378571,302.981201 
	C408.012238,316.827820 371.345093,349.380768 363.221100,368.770233 
	C370.625702,362.486206 377.862488,356.096924 385.369995,350.043427 
	C392.775818,344.071899 400.876923,339.090851 409.267639,334.606232 
	C422.042847,327.778229 432.234528,324.360779 436.159424,325.973602 
	C420.955261,333.799988 407.203064,343.101318 395.148804,354.718109 
	C383.124786,366.305786 372.279419,378.826569 364.199860,393.937805 
	C463.884857,344.540680 562.585754,344.060974 661.686890,393.353638 
	C644.612244,363.790131 620.664612,341.340881 590.747192,324.862213 
	C619.424927,331.523895 641.244873,349.493774 662.978882,367.723328 
	C659.628601,361.348419 655.554260,355.515686 650.695129,350.335052 
	C612.259155,309.355591 564.146057,291.372131 508.751038,291.586609 
	C487.991943,291.666962 467.728729,295.753357 447.378571,302.981201 
M400.334167,679.116943 
	C417.432617,685.349182 435.053619,689.613220 452.965790,692.599365 
	C488.000275,698.440125 523.174866,698.789734 558.437195,694.806641 
	C587.937622,691.474304 616.404724,684.226929 643.358704,671.735535 
	C659.179077,664.403809 673.881409,655.266602 684.351807,640.711487 
	C685.720947,638.808105 687.252747,636.959656 687.591980,632.905029 
	C675.632507,646.406433 662.301697,655.694397 647.150269,662.182068 
	C632.225769,668.572632 616.900085,673.823303 600.763733,676.188110 
	C602.434265,673.543945 605.013611,672.747986 607.415222,671.746643 
	C615.882935,668.216125 624.146118,664.258606 632.114868,659.733765 
	C648.312622,650.536316 663.231750,639.733582 674.562317,624.643982 
	C676.083374,622.618286 678.072266,620.677734 677.424622,617.008850 
	C645.996826,648.775452 606.979492,662.900391 563.856995,667.640381 
	C592.828613,658.285339 620.312439,646.109131 644.435425,627.035034 
	C672.242004,605.048340 692.562744,568.392273 694.034546,552.783630 
	C693.724731,553.312805 693.444702,553.721802 693.232605,554.163391 
	C677.440552,587.044800 652.763184,611.215210 620.639160,628.018677 
	C588.974426,644.581909 554.757263,650.807434 519.499512,652.073608 
	C498.987793,652.810303 478.649445,650.569763 458.516144,646.329468 
	C418.746582,637.953430 384.300873,620.226013 356.950226,589.628845 
	C346.307434,577.722778 338.679321,563.960571 331.437408,549.821899 
	C332.774353,555.284668 334.215424,560.714355 336.301605,565.883728 
	C348.831146,596.930298 370.315613,620.551941 398.017944,638.651855 
	C416.401001,650.662842 436.654449,658.791626 457.625916,665.164917 
	C459.128876,665.621704 461.319000,665.372437 462.061279,668.490356 
	C418.642853,662.425232 379.568176,648.225891 347.914917,617.044373 
	C366.038818,647.655396 396.194397,661.798950 426.410095,676.065674 
	C392.920166,669.551697 361.787231,658.345154 337.333832,631.294861 
	C340.517365,639.860840 346.781586,647.822449 354.325470,653.865662 
	C367.983521,664.806763 383.118713,673.038330 400.334167,679.116943 
M577.585205,707.316528 
	C508.322662,718.013611 440.737183,712.730957 375.345917,686.075378 
	C401.665314,703.783264 431.574951,712.078918 461.967377,719.340393 
	C449.116455,720.308167 436.784393,717.763306 424.600616,714.911438 
	C412.239441,712.018005 400.106293,708.150452 387.462341,704.593872 
	C453.745850,742.255615 584.203003,736.499451 630.409851,707.478943 
	C619.619263,710.058716 609.032471,713.424622 598.161499,715.728943 
	C579.106201,719.768127 569.592773,720.931152 564.629517,718.397217 
	C596.211060,712.704773 625.129761,702.596069 651.527039,685.934387 
	C639.656616,690.165344 627.899475,694.723572 615.826477,698.339355 
	C603.543579,702.018066 591.013794,704.718262 577.585205,707.316528 
M347.917328,429.294037 
	C354.089020,425.017761 360.514679,421.157013 367.208069,417.762939 
	C415.277344,393.388306 466.808472,384.845886 520.073792,385.168976 
	C543.046265,385.308350 565.941101,387.586700 588.430969,392.757904 
	C619.614258,399.928162 649.686096,409.897491 676.620605,427.786041 
	C678.585083,429.090698 680.303467,431.044464 683.328857,430.668945 
	C680.956543,427.641174 678.288696,424.955688 675.396301,422.538910 
	C667.837219,416.222931 659.766663,410.609772 651.196106,405.752441 
	C610.636108,382.764954 566.430420,373.789734 520.415649,372.474548 
	C494.040741,371.720703 467.870087,374.307251 442.126587,380.384674 
	C415.548096,386.659241 390.002319,395.617798 366.936096,410.567993 
	C357.930145,416.405121 349.490143,423.059204 343.250061,432.179718 
	C344.613159,431.345581 345.976227,430.511444 347.917328,429.294037 
M358.248779,500.443695 
	C358.264282,541.736145 377.714172,581.977844 391.513062,592.185425 
	C389.796875,588.009705 388.526154,584.826050 387.186249,581.671692 
	C373.012146,548.303772 368.883026,513.811096 375.684143,478.126556 
	C380.493408,452.893066 393.492981,434.044525 417.815033,423.816193 
	C424.598663,420.963409 431.648376,418.808258 438.381378,415.714294 
	C437.156677,415.385284 435.989471,415.247681 434.863770,415.405701 
	C413.667664,418.380829 393.207916,424.067413 373.387634,432.120148 
	C370.703979,433.210480 369.242432,435.125549 368.246490,437.797333 
	C360.828247,457.697876 357.564056,478.254395 358.248779,500.443695 
M653.252991,528.412781 
	C650.815186,546.618591 646.885254,564.446533 639.956116,581.533569 
	C639.346741,583.036316 637.912964,584.847412 640.204773,586.311340 
	C643.310120,584.040344 644.656250,582.448059 646.939026,578.581970 
	C657.759216,560.257141 663.965271,540.411926 666.960327,519.404785 
	C670.888123,491.855377 668.551819,465.017578 658.956055,438.828491 
	C657.701660,435.404785 655.704224,433.156616 652.396912,431.855225 
	C634.549377,424.832397 616.401978,418.866943 597.320801,416.193756 
	C594.521423,415.801605 591.713074,414.778900 588.620728,415.746124 
	C589.003845,416.154602 589.093689,416.337006 589.229614,416.382874 
	C592.541992,417.500427 595.855469,418.614929 599.176208,419.707306 
	C626.849609,428.810364 644.825562,446.613831 650.812134,475.871338 
	C654.323181,493.030273 654.959412,510.175629 653.252991,528.412781 
M512.849243,494.243652 
	C507.103577,510.915253 501.330627,527.577515 495.623322,544.262207 
	C492.554169,553.234558 489.515900,562.219360 486.635162,571.253296 
	C485.646454,574.353760 485.217621,577.665588 489.135162,579.337952 
	C492.992401,580.984497 496.962616,579.490906 498.811676,575.744995 
	C499.545258,574.258850 500.105011,572.678162 500.644989,571.106506 
	C512.050415,537.910889 523.440735,504.710144 534.836792,471.511322 
	C536.403137,466.948151 538.245056,462.460205 539.494324,457.812408 
	C541.145386,451.669708 536.772644,447.601166 530.719604,449.270508 
	C527.681763,450.108215 526.769592,452.605408 525.916809,455.151489 
	C521.637756,467.927460 517.384949,480.712189 512.849243,494.243652 
M421.119141,532.379578 
	C432.022949,542.649292 442.913910,552.932739 453.847290,563.170837 
	C455.171326,564.410645 456.618225,565.597351 458.195007,566.471863 
	C460.899261,567.971680 463.404633,567.181824 465.411804,565.031982 
	C467.522278,562.771484 468.482483,560.104309 466.404907,557.379272 
	C464.803009,555.278259 462.895233,553.381531 460.960388,551.567993 
	C450.638641,541.893250 440.233276,532.307678 429.922302,522.621582 
	C423.650116,516.729553 423.596436,516.558899 430.055756,510.509705 
	C440.986237,500.273315 452.109955,490.243439 463.063538,480.031403 
	C467.493500,475.901276 468.086029,471.914307 465.106659,468.845978 
	C461.926544,465.570801 458.118103,465.911499 453.733246,469.956024 
	C447.861481,475.372040 441.954590,480.753448 436.202698,486.294952 
	C427.933746,494.261475 419.682037,502.251892 411.633942,510.439453 
	C406.611572,515.548828 407.024231,519.204956 412.328156,523.940674 
	C415.180542,526.487488 417.859100,529.228943 421.119141,532.379578 
M598.822083,512.718445 
	C602.995056,515.696045 602.069824,518.114197 598.590820,521.275452 
	C586.404419,532.348755 574.417969,543.645691 562.507202,555.016479 
	C558.577148,558.768311 558.439514,561.968445 561.297241,565.007324 
	C564.148743,568.039612 567.671753,568.052185 571.383423,564.580688 
	C585.964050,550.943481 600.497192,537.254517 614.943054,523.474792 
	C619.133301,519.477783 619.216187,514.343628 615.062561,510.267090 
	C600.694946,496.166046 586.191589,482.202057 570.988770,468.990570 
	C569.336609,467.554810 567.542175,466.408203 565.124451,466.873077 
	C562.421265,467.392792 560.599976,468.861755 559.717468,471.460571 
	C558.621521,474.687958 560.374329,476.921387 562.501221,478.908905 
	C574.412781,490.039978 586.358032,501.134949 598.822083,512.718445 
M311.576202,544.713867 
	C306.618591,514.453125 306.452667,484.091797 309.881409,453.634552 
	C305.423370,462.400116 303.449738,471.934570 300.128052,481.137787 
	C297.955566,474.436981 299.410309,467.523682 297.979401,460.877075 
	C288.297241,486.456482 290.696899,511.804596 299.290619,537.038635 
	C298.506012,530.308533 298.552338,523.533386 298.634308,516.768433 
	C298.713470,510.232788 298.184601,503.622009 300.042328,497.169708 
	C301.378693,500.418640 301.799164,503.659637 302.272278,506.892914 
	C304.171875,519.873901 306.383362,532.782593 311.576202,544.713867 
M719.845154,530.320862 
	C723.081299,519.451416 723.521423,507.994385 726.158569,496.799103 
	C727.710266,497.474670 728.090698,498.237732 728.119873,499.074219 
	C728.536926,511.036865 728.572266,522.995422 727.586487,534.937805 
	C735.944824,517.244446 738.364258,475.084808 728.101379,459.979523 
	C727.775085,466.888000 728.905701,474.205597 726.822571,481.374359 
	C723.980042,477.472198 723.989746,472.848022 722.453125,468.723480 
	C720.964478,464.727478 720.495911,460.277283 717.205078,456.924835 
	C720.781616,483.352112 718.953796,509.730316 716.873718,536.109985 
	C717.296814,536.143677 717.719910,536.177368 718.143005,536.211060 
	C718.649597,534.500427 719.156250,532.789856 719.845154,530.320862 
z"/>
</svg>